<svg width="420" height="307" viewBox="0 0 420 307" fill="none" xmlns="http://www.w3.org/2000/svg">
<mask id="path-1-inside-1_105_881" fill="white">
<path d="M379.75 247.994C382.449 247.994 384.988 249.268 386.603 251.43L417.889 293.333C422.1 298.972 418.075 307 411.037 307H61.0372C53.7271 307 49.7871 298.422 54.55 292.877L90.5391 250.974C92.1636 249.083 94.533 247.995 97.0263 247.994H379.75ZM199.666 288.785C198.337 288.785 197.083 289.402 196.273 290.456L194.345 292.968C192.186 295.78 194.191 299.848 197.736 299.848H275.779C279.058 299.848 281.117 296.308 279.496 293.458L278.067 290.946C277.307 289.609 275.888 288.785 274.35 288.785H199.666Z"/>
<path d="M376.679 49.5989C379.04 49.5991 380.955 51.5133 380.955 53.8746V235.167C380.955 237.528 379.04 239.443 376.679 239.443H96.1889C93.8274 239.443 91.9131 237.529 91.9131 235.167V161.052C96.9117 162.788 102.063 164.098 107.306 164.97V218.064C107.306 220.426 109.22 222.34 111.582 222.34H361.286C363.648 222.34 365.562 220.425 365.562 218.064V69.2674C365.562 66.9061 363.648 64.9918 361.286 64.9916H213.702C212.798 59.7099 211.384 54.5596 209.493 49.5989H376.679ZM178.75 49.5989C181.584 54.3166 183.766 59.4784 185.168 64.9916H111.582C109.22 64.9916 107.306 66.906 107.306 69.2674V137.797C101.858 136.443 96.6876 134.402 91.9131 131.761V53.8746C91.9131 51.5132 93.8274 49.5989 96.1889 49.5989H178.75Z"/>
<path d="M352.735 72.688C355.096 72.6882 357.011 74.6024 357.011 76.9638V210.368C357.011 212.729 355.096 214.643 352.735 214.643H120.133C117.772 214.643 115.857 212.729 115.857 210.368V165.997C122.2 166.468 128.627 166.308 135.033 165.492C158.929 162.444 180.696 150.508 195.546 132.309C198.598 128.569 201.305 124.627 203.657 120.528C203.377 122.023 203.237 123.59 203.237 125.229C203.237 131.295 204.714 136.084 207.667 139.595C210.7 143.107 214.132 145.661 217.963 147.258C221.794 148.774 227.062 150.45 233.766 152.286V167.61C230.573 166.333 228.817 163.659 228.498 159.589H203.476C203.796 167.411 206.709 173.596 212.216 178.146C217.803 182.695 224.986 185.369 233.766 186.167V195.984H241.309V186.407C247.853 186.167 253.44 184.89 258.069 182.575C262.778 180.261 266.33 177.228 268.724 173.477C271.199 169.646 272.436 165.455 272.436 160.906C272.436 155.399 271.079 150.969 268.365 147.617C265.652 144.185 262.379 141.631 258.549 139.954C254.797 138.199 250.048 136.523 244.302 134.926L241.309 133.968V118.764C244.022 119.961 245.538 122.395 245.857 126.067H271.119C270.56 118.245 267.647 112.099 262.379 107.63C257.191 103.16 250.168 100.606 241.309 99.9677V90.2696H233.766V99.9677C228.019 100.287 222.831 101.484 218.202 103.559C214.344 105.222 211.151 107.494 208.624 110.377C213.516 98.4393 215.615 85.5694 214.648 72.688H352.735ZM241.309 154.68C245.459 156.436 247.534 158.711 247.534 161.505C247.534 163.26 246.975 164.737 245.857 165.934C244.74 167.051 243.224 167.81 241.309 168.209V154.68ZM186.582 72.688C190.346 105.314 166.081 134.78 131.675 139.169C126.287 139.856 120.985 139.885 115.857 139.321V76.9638C115.857 74.6023 117.772 72.688 120.133 72.688H186.582ZM233.766 131.215C230.094 129.379 228.259 127.024 228.259 124.151C228.259 120.719 230.095 118.684 233.766 118.045V131.215Z"/>
<path d="M126.135 0C147.568 0 168.123 8.424 183.278 23.4188C198.433 38.4136 206.947 58.751 206.947 79.9568C206.947 101.163 198.433 121.5 183.278 136.495C168.123 151.49 147.568 159.914 126.135 159.914C104.702 159.914 84.1476 151.49 68.9924 136.495C53.8372 121.5 45.3231 101.163 45.3231 79.9568C45.3231 58.751 53.8372 38.4136 68.9924 23.4188C84.1476 8.424 104.702 0 126.135 0ZM196.159 79.9514C196.275 70.7795 194.549 61.6761 191.082 53.1691C187.615 44.6622 182.475 36.921 175.96 30.3946C169.446 23.8682 161.687 18.6864 153.133 15.1497C144.579 11.613 135.4 9.79189 126.13 9.79189C116.859 9.79189 107.68 11.613 99.1264 15.1497C90.5725 18.6864 82.8133 23.8682 76.299 30.3946C69.7846 36.921 64.6447 44.6622 61.1773 53.1691C57.7099 61.6761 55.9841 70.7795 56.0999 79.9514C56.0999 98.3294 63.4786 115.955 76.6127 128.95C89.7469 141.945 107.561 149.246 126.135 149.246C144.71 149.246 162.523 141.945 175.657 128.95C188.792 115.955 196.159 98.3294 196.159 79.9514Z"/>
<path d="M54.9936 145.81C55.8867 144.882 56.9619 144.138 58.1552 143.623C59.3485 143.108 60.6357 142.832 61.9403 142.812C63.2449 142.792 64.5404 143.028 65.7497 143.506C66.9591 143.984 68.0577 144.695 68.9803 145.595C69.9029 146.496 70.6307 147.568 71.1205 148.749C71.6104 149.929 71.8522 151.194 71.8317 152.468C71.8111 153.741 71.5287 154.998 71.0011 156.163C70.4734 157.327 69.7114 158.377 68.7602 159.249L16.8393 209.934C15.9461 210.862 14.871 211.606 13.6776 212.121C12.4843 212.636 11.1971 212.912 9.89252 212.932C8.5879 212.952 7.29248 212.716 6.08313 212.238C4.87379 211.76 3.77519 211.049 2.85258 210.148C1.92997 209.248 1.20214 208.175 0.712322 206.995C0.222505 205.814 -0.0193216 204.55 0.00120542 203.276C0.0217325 202.003 0.304193 200.746 0.831814 199.581C1.35944 198.416 2.12145 197.367 3.07263 196.495L54.9936 145.81Z"/>
</mask>
<path d="M379.75 247.994C382.449 247.994 384.988 249.268 386.603 251.43L417.889 293.333C422.1 298.972 418.075 307 411.037 307H61.0372C53.7271 307 49.7871 298.422 54.55 292.877L90.5391 250.974C92.1636 249.083 94.533 247.995 97.0263 247.994H379.75ZM199.666 288.785C198.337 288.785 197.083 289.402 196.273 290.456L194.345 292.968C192.186 295.78 194.191 299.848 197.736 299.848H275.779C279.058 299.848 281.117 296.308 279.496 293.458L278.067 290.946C277.307 289.609 275.888 288.785 274.35 288.785H199.666Z" fill="white"/>
<path d="M376.679 49.5989C379.04 49.5991 380.955 51.5133 380.955 53.8746V235.167C380.955 237.528 379.04 239.443 376.679 239.443H96.1889C93.8274 239.443 91.9131 237.529 91.9131 235.167V161.052C96.9117 162.788 102.063 164.098 107.306 164.97V218.064C107.306 220.426 109.22 222.34 111.582 222.34H361.286C363.648 222.34 365.562 220.425 365.562 218.064V69.2674C365.562 66.9061 363.648 64.9918 361.286 64.9916H213.702C212.798 59.7099 211.384 54.5596 209.493 49.5989H376.679ZM178.75 49.5989C181.584 54.3166 183.766 59.4784 185.168 64.9916H111.582C109.22 64.9916 107.306 66.906 107.306 69.2674V137.797C101.858 136.443 96.6876 134.402 91.9131 131.761V53.8746C91.9131 51.5132 93.8274 49.5989 96.1889 49.5989H178.75Z" fill="white"/>
<path d="M352.735 72.688C355.096 72.6882 357.011 74.6024 357.011 76.9638V210.368C357.011 212.729 355.096 214.643 352.735 214.643H120.133C117.772 214.643 115.857 212.729 115.857 210.368V165.997C122.2 166.468 128.627 166.308 135.033 165.492C158.929 162.444 180.696 150.508 195.546 132.309C198.598 128.569 201.305 124.627 203.657 120.528C203.377 122.023 203.237 123.59 203.237 125.229C203.237 131.295 204.714 136.084 207.667 139.595C210.7 143.107 214.132 145.661 217.963 147.258C221.794 148.774 227.062 150.45 233.766 152.286V167.61C230.573 166.333 228.817 163.659 228.498 159.589H203.476C203.796 167.411 206.709 173.596 212.216 178.146C217.803 182.695 224.986 185.369 233.766 186.167V195.984H241.309V186.407C247.853 186.167 253.44 184.89 258.069 182.575C262.778 180.261 266.33 177.228 268.724 173.477C271.199 169.646 272.436 165.455 272.436 160.906C272.436 155.399 271.079 150.969 268.365 147.617C265.652 144.185 262.379 141.631 258.549 139.954C254.797 138.199 250.048 136.523 244.302 134.926L241.309 133.968V118.764C244.022 119.961 245.538 122.395 245.857 126.067H271.119C270.56 118.245 267.647 112.099 262.379 107.63C257.191 103.16 250.168 100.606 241.309 99.9677V90.2696H233.766V99.9677C228.019 100.287 222.831 101.484 218.202 103.559C214.344 105.222 211.151 107.494 208.624 110.377C213.516 98.4393 215.615 85.5694 214.648 72.688H352.735ZM241.309 154.68C245.459 156.436 247.534 158.711 247.534 161.505C247.534 163.26 246.975 164.737 245.857 165.934C244.74 167.051 243.224 167.81 241.309 168.209V154.68ZM186.582 72.688C190.346 105.314 166.081 134.78 131.675 139.169C126.287 139.856 120.985 139.885 115.857 139.321V76.9638C115.857 74.6023 117.772 72.688 120.133 72.688H186.582ZM233.766 131.215C230.094 129.379 228.259 127.024 228.259 124.151C228.259 120.719 230.095 118.684 233.766 118.045V131.215Z" fill="#8EFC73"/>
<path d="M126.135 0C147.568 0 168.123 8.424 183.278 23.4188C198.433 38.4136 206.947 58.751 206.947 79.9568C206.947 101.163 198.433 121.5 183.278 136.495C168.123 151.49 147.568 159.914 126.135 159.914C104.702 159.914 84.1476 151.49 68.9924 136.495C53.8372 121.5 45.3231 101.163 45.3231 79.9568C45.3231 58.751 53.8372 38.4136 68.9924 23.4188C84.1476 8.424 104.702 0 126.135 0ZM196.159 79.9514C196.275 70.7795 194.549 61.6761 191.082 53.1691C187.615 44.6622 182.475 36.921 175.96 30.3946C169.446 23.8682 161.687 18.6864 153.133 15.1497C144.579 11.613 135.4 9.79189 126.13 9.79189C116.859 9.79189 107.68 11.613 99.1264 15.1497C90.5725 18.6864 82.8133 23.8682 76.299 30.3946C69.7846 36.921 64.6447 44.6622 61.1773 53.1691C57.7099 61.6761 55.9841 70.7795 56.0999 79.9514C56.0999 98.3294 63.4786 115.955 76.6127 128.95C89.7469 141.945 107.561 149.246 126.135 149.246C144.71 149.246 162.523 141.945 175.657 128.95C188.792 115.955 196.159 98.3294 196.159 79.9514Z" fill="white"/>
<path d="M54.9936 145.81C55.8867 144.882 56.9619 144.138 58.1552 143.623C59.3485 143.108 60.6357 142.832 61.9403 142.812C63.2449 142.792 64.5404 143.028 65.7497 143.506C66.9591 143.984 68.0577 144.695 68.9803 145.595C69.9029 146.496 70.6307 147.568 71.1205 148.749C71.6104 149.929 71.8522 151.194 71.8317 152.468C71.8111 153.741 71.5287 154.998 71.0011 156.163C70.4734 157.327 69.7114 158.377 68.7602 159.249L16.8393 209.934C15.9461 210.862 14.871 211.606 13.6776 212.121C12.4843 212.636 11.1971 212.912 9.89252 212.932C8.5879 212.952 7.29248 212.716 6.08313 212.238C4.87379 211.76 3.77519 211.049 2.85258 210.148C1.92997 209.248 1.20214 208.175 0.712322 206.995C0.222505 205.814 -0.0193216 204.55 0.00120542 203.276C0.0217325 202.003 0.304193 200.746 0.831814 199.581C1.35944 198.416 2.12145 197.367 3.07263 196.495L54.9936 145.81Z" fill="white"/>
<path d="M379.75 247.994C382.449 247.994 384.988 249.268 386.603 251.43L417.889 293.333C422.1 298.972 418.075 307 411.037 307H61.0372C53.7271 307 49.7871 298.422 54.55 292.877L90.5391 250.974C92.1636 249.083 94.533 247.995 97.0263 247.994H379.75ZM199.666 288.785C198.337 288.785 197.083 289.402 196.273 290.456L194.345 292.968C192.186 295.78 194.191 299.848 197.736 299.848H275.779C279.058 299.848 281.117 296.308 279.496 293.458L278.067 290.946C277.307 289.609 275.888 288.785 274.35 288.785H199.666Z" stroke="white" stroke-width="2" mask="url(#path-1-inside-1_105_881)"/>
<path d="M376.679 49.5989C379.04 49.5991 380.955 51.5133 380.955 53.8746V235.167C380.955 237.528 379.04 239.443 376.679 239.443H96.1889C93.8274 239.443 91.9131 237.529 91.9131 235.167V161.052C96.9117 162.788 102.063 164.098 107.306 164.97V218.064C107.306 220.426 109.22 222.34 111.582 222.34H361.286C363.648 222.34 365.562 220.425 365.562 218.064V69.2674C365.562 66.9061 363.648 64.9918 361.286 64.9916H213.702C212.798 59.7099 211.384 54.5596 209.493 49.5989H376.679ZM178.75 49.5989C181.584 54.3166 183.766 59.4784 185.168 64.9916H111.582C109.22 64.9916 107.306 66.906 107.306 69.2674V137.797C101.858 136.443 96.6876 134.402 91.9131 131.761V53.8746C91.9131 51.5132 93.8274 49.5989 96.1889 49.5989H178.75Z" stroke="white" stroke-width="2" mask="url(#path-1-inside-1_105_881)"/>
<path d="M352.735 72.688C355.096 72.6882 357.011 74.6024 357.011 76.9638V210.368C357.011 212.729 355.096 214.643 352.735 214.643H120.133C117.772 214.643 115.857 212.729 115.857 210.368V165.997C122.2 166.468 128.627 166.308 135.033 165.492C158.929 162.444 180.696 150.508 195.546 132.309C198.598 128.569 201.305 124.627 203.657 120.528C203.377 122.023 203.237 123.59 203.237 125.229C203.237 131.295 204.714 136.084 207.667 139.595C210.7 143.107 214.132 145.661 217.963 147.258C221.794 148.774 227.062 150.45 233.766 152.286V167.61C230.573 166.333 228.817 163.659 228.498 159.589H203.476C203.796 167.411 206.709 173.596 212.216 178.146C217.803 182.695 224.986 185.369 233.766 186.167V195.984H241.309V186.407C247.853 186.167 253.44 184.89 258.069 182.575C262.778 180.261 266.33 177.228 268.724 173.477C271.199 169.646 272.436 165.455 272.436 160.906C272.436 155.399 271.079 150.969 268.365 147.617C265.652 144.185 262.379 141.631 258.549 139.954C254.797 138.199 250.048 136.523 244.302 134.926L241.309 133.968V118.764C244.022 119.961 245.538 122.395 245.857 126.067H271.119C270.56 118.245 267.647 112.099 262.379 107.63C257.191 103.16 250.168 100.606 241.309 99.9677V90.2696H233.766V99.9677C228.019 100.287 222.831 101.484 218.202 103.559C214.344 105.222 211.151 107.494 208.624 110.377C213.516 98.4393 215.615 85.5694 214.648 72.688H352.735ZM241.309 154.68C245.459 156.436 247.534 158.711 247.534 161.505C247.534 163.26 246.975 164.737 245.857 165.934C244.74 167.051 243.224 167.81 241.309 168.209V154.68ZM186.582 72.688C190.346 105.314 166.081 134.78 131.675 139.169C126.287 139.856 120.985 139.885 115.857 139.321V76.9638C115.857 74.6023 117.772 72.688 120.133 72.688H186.582ZM233.766 131.215C230.094 129.379 228.259 127.024 228.259 124.151C228.259 120.719 230.095 118.684 233.766 118.045V131.215Z" stroke="white" stroke-width="2" mask="url(#path-1-inside-1_105_881)"/>
<path d="M126.135 0C147.568 0 168.123 8.424 183.278 23.4188C198.433 38.4136 206.947 58.751 206.947 79.9568C206.947 101.163 198.433 121.5 183.278 136.495C168.123 151.49 147.568 159.914 126.135 159.914C104.702 159.914 84.1476 151.49 68.9924 136.495C53.8372 121.5 45.3231 101.163 45.3231 79.9568C45.3231 58.751 53.8372 38.4136 68.9924 23.4188C84.1476 8.424 104.702 0 126.135 0ZM196.159 79.9514C196.275 70.7795 194.549 61.6761 191.082 53.1691C187.615 44.6622 182.475 36.921 175.96 30.3946C169.446 23.8682 161.687 18.6864 153.133 15.1497C144.579 11.613 135.4 9.79189 126.13 9.79189C116.859 9.79189 107.68 11.613 99.1264 15.1497C90.5725 18.6864 82.8133 23.8682 76.299 30.3946C69.7846 36.921 64.6447 44.6622 61.1773 53.1691C57.7099 61.6761 55.9841 70.7795 56.0999 79.9514C56.0999 98.3294 63.4786 115.955 76.6127 128.95C89.7469 141.945 107.561 149.246 126.135 149.246C144.71 149.246 162.523 141.945 175.657 128.95C188.792 115.955 196.159 98.3294 196.159 79.9514Z" stroke="white" stroke-width="2" mask="url(#path-1-inside-1_105_881)"/>
<path d="M54.9936 145.81C55.8867 144.882 56.9619 144.138 58.1552 143.623C59.3485 143.108 60.6357 142.832 61.9403 142.812C63.2449 142.792 64.5404 143.028 65.7497 143.506C66.9591 143.984 68.0577 144.695 68.9803 145.595C69.9029 146.496 70.6307 147.568 71.1205 148.749C71.6104 149.929 71.8522 151.194 71.8317 152.468C71.8111 153.741 71.5287 154.998 71.0011 156.163C70.4734 157.327 69.7114 158.377 68.7602 159.249L16.8393 209.934C15.9461 210.862 14.871 211.606 13.6776 212.121C12.4843 212.636 11.1971 212.912 9.89252 212.932C8.5879 212.952 7.29248 212.716 6.08313 212.238C4.87379 211.76 3.77519 211.049 2.85258 210.148C1.92997 209.248 1.20214 208.175 0.712322 206.995C0.222505 205.814 -0.0193216 204.55 0.00120542 203.276C0.0217325 202.003 0.304193 200.746 0.831814 199.581C1.35944 198.416 2.12145 197.367 3.07263 196.495L54.9936 145.81Z" stroke="white" stroke-width="2" mask="url(#path-1-inside-1_105_881)"/>
</svg>
